<svg width="41" height="35" viewBox="0 0 41 35" fill="none" xmlns="http://www.w3.org/2000/svg">
<path d="M37.8333 17.6667C37.8333 21.8568 36.7246 25.5348 35.0642 28.0893C33.3883 30.6675 31.3657 31.8333 29.5 31.8333C27.6343 31.8333 25.6116 30.6675 23.9357 28.0893C22.2753 25.5348 21.1666 21.8568 21.1666 17.6667C21.1666 13.4765 22.2753 9.79854 23.9357 7.24402C25.6116 4.66579 27.6343 3.5 29.5 3.5C31.3657 3.5 33.3883 4.66579 35.0642 7.24402C36.7246 9.79854 37.8333 13.4765 37.8333 17.6667Z" stroke="#5A3C35" stroke-width="5"/>
<path d="M12.8331 31.6667L12.8331 3.33341" stroke="#5A3C35" stroke-width="5" stroke-linecap="round"/>
<path d="M3.4126 15.0663L11.9998 3.33342" stroke="#5A3C35" stroke-width="5" stroke-linecap="round"/>
</svg>
